{"asset":{"version":"2.0","generator":"THREE.GLTFExporter"},"scenes":[{"name":"default","nodes":[0]}],"scene":0,"nodes":[{"name":"default","mesh":0}],"bufferViews":[{"buffer":0,"byteOffset":0,"byteLength":9552,"target":34962,"byteStride":12},{"buffer":0,"byteOffset":9552,"byteLength":9552,"target":34962,"byteStride":12},{"buffer":0,"byteOffset":19104,"byteLength":6368,"target":34962,"byteStride":8},{"buffer":0,"byteOffset":25472,"byteLength":6368,"target":34962,"byteStride":8},{"buffer":0,"byteOffset":31840,"byteLength":804,"target":34963},{"buffer":0,"byteOffset":32644,"byteLength":804,"target":34963},{"buffer":0,"byteOffset":33448,"byteLength":804,"target":34963}],"buffers":[{"byteLength":34252,"uri":"data:application/octet-stream;base64,"}],"accessors":[{"bufferView":0,"componentType":5126,"count":796,"max":[9,2.000326156616211,2],"min":[-2,-0.0003101825714111328,-9.25],"type":"VEC3"},{"bufferView":1,"componentType":5126,"count":796,"max":[1,1,1],"min":[-1,-1,-1],"type":"VEC3"},{"bufferView":2,"componentType":5126,"count":796,"max":[1,1],"min":[0,0],"type":"VEC2"},{"bufferView":3,"componentType":5126,"count":796,"max":[-1,0],"min":[-1,0],"type":"VEC2"},{"bufferView":4,"componentType":5123,"count":402,"max":[269],"min":[0],"type":"SCALAR"},{"bufferView":5,"componentType":5123,"count":402,"max":[538],"min":[270],"type":"SCALAR"},{"bufferView":6,"componentType":5123,"count":402,"max":[795],"min":[539],"type":"SCALAR"}],"materials":[{"pbrMetallicRoughness":{"metallicFactor":0.5,"roughnessFactor":0.5,"baseColorTexture":{"index":0}},"alphaMode":"MASK","alphaCutoff":0.01},{"pbrMetallicRoughness":{"metallicFactor":0.5,"roughnessFactor":0.5,"baseColorTexture":{"index":1}},"alphaMode":"MASK","alphaCutoff":0.01},{"pbrMetallicRoughness":{"metallicFactor":0.5,"roughnessFactor":0.5,"baseColorTexture":{"index":2}},"alphaMode":"MASK","alphaCutoff":0.01}],"textures":[{"sampler":0,"source":0},{"sampler":1,"source":1},{"sampler":2,"source":2}],"samplers":[{"magFilter":9728,"minFilter":9728,"wrapS":33071,"wrapT":33071},{"magFilter":9728,"minFilter":9728,"wrapS":33071,"wrapT":33071},{"magFilter":9728,"minFilter":9728,"wrapS":33071,"wrapT":33071}],"images":[{"mimeType":"image/png","uri":"data:image/png;base64,"},{"mimeType":"image/png","uri":"data:image/png;base64,"},{"mimeType":"image/png","uri":"data:image/png;base64,"}],"meshes":[{"primitives":[{"mode":4,"attributes":{"POSITION":0,"NORMAL":1,"TEXCOORD_0":2,"_UVANIMATION":3},"indices":4,"material":0},{"mode":4,"attributes":{"POSITION":0,"NORMAL":1,"TEXCOORD_0":2,"_UVANIMATION":3},"indices":5,"material":1},{"mode":4,"attributes":{"POSITION":0,"NORMAL":1,"TEXCOORD_0":2,"_UVANIMATION":3},"indices":6,"material":2}]}]}